<svg width="45" height="45" viewBox="0 0 45 45" fill="none" xmlns="http://www.w3.org/2000/svg">
<path d="M42.5156 0H2.48436C1.11328 0 0 1.11328 0 2.48437V42.5156C0 43.8867 1.11328 45 2.48436 45H22.5V27.1875H17.1211V20.625H22.5V15.7735C22.5 9.96095 26.5312 6.79687 31.7227 6.79687C34.207 6.79687 36.8789 6.98436 37.5 7.06642V13.1367H33.3633C30.5391 13.1367 30 14.4727 30 16.4414V20.625H36.7265L35.8477 27.1875H30V45H42.5156C43.8866 45 45 43.8867 45 42.5156V2.48437C45 1.11328 43.8866 0 42.5156 0Z" fill="#F3F3F3" fill-opacity="0.7"/>
</svg>
